{
	"asset":{
		"generator":"Khronos glTF Blender I/O v4.0.44",
		"version":"2.0"
	},
	"scene":0,
	"scenes":[
		{
			"name":"Scene",
			"nodes":[
				0
			]
		}
	],
	"nodes":[
		{
			"mesh":0,
			"name":"Clyde",
			"rotation":[
				0,
				-0.19863024353981018,
				0,
				0.9800745248794556
			],
			"scale":[
				0.033201299607753754,
				0.16425691545009613,
				0.11720345914363861
			],
			"translation":[
				0.9600000381469727,
				1.2599999904632568,
				0.2800000309944153
			]
		}
	],
	"materials":[
		{
			"doubleSided":true,
			"name":"Material.009",
			"pbrMetallicRoughness":{
				"baseColorFactor":[
					0.01045311987400055,
					0,
					0.8000000715255737,
					1
				],
				"metallicFactor":0,
				"roughnessFactor":0.5
			}
		},
		{
			"doubleSided":true,
			"name":"Material.010",
			"pbrMetallicRoughness":{
				"baseColorFactor":[
					0.4391174018383026,
					0.4391174018383026,
					0.4391174018383026,
					1
				],
				"metallicFactor":0,
				"roughnessFactor":0.5
			}
		},
		{
			"doubleSided":true,
			"name":"Material.011",
			"pbrMetallicRoughness":{
				"baseColorFactor":[
					0.8000000715255737,
					0.14283739030361176,
					0.0052676331251859665,
					1
				],
				"metallicFactor":0,
				"roughnessFactor":0.5
			}
		}
	],
	"meshes":[
		{
			"name":"Sphere.013",
			"primitives":[
				{
					"attributes":{
						"POSITION":0,
						"NORMAL":1,
						"TEXCOORD_0":2
					},
					"indices":3,
					"material":0
				},
				{
					"attributes":{
						"POSITION":4,
						"NORMAL":5,
						"TEXCOORD_0":6
					},
					"indices":3,
					"material":1
				},
				{
					"attributes":{
						"POSITION":7,
						"NORMAL":8,
						"TEXCOORD_0":9
					},
					"indices":10,
					"material":2
				}
			]
		}
	],
	"accessors":[
		{
			"bufferView":0,
			"componentType":5126,
			"count":1118,
			"max":[
				0.9999997019767761,
				1,
				0.9999994039535522
			],
			"min":[
				-15.210920333862305,
				-1,
				-7.140380859375
			],
			"type":"VEC3"
		},
		{
			"bufferView":1,
			"componentType":5126,
			"count":1118,
			"type":"VEC3"
		},
		{
			"bufferView":2,
			"componentType":5126,
			"count":1118,
			"type":"VEC2"
		},
		{
			"bufferView":3,
			"componentType":5123,
			"count":5760,
			"type":"SCALAR"
		},
		{
			"bufferView":4,
			"componentType":5126,
			"count":1118,
			"max":[
				0.1062924861907959,
				2.2569196224212646,
				2.2895090579986572
			],
			"min":[
				-19.860435485839844,
				-2.2118871212005615,
				-7.59354305267334
			],
			"type":"VEC3"
		},
		{
			"bufferView":5,
			"componentType":5126,
			"count":1118,
			"type":"VEC3"
		},
		{
			"bufferView":6,
			"componentType":5126,
			"count":1118,
			"type":"VEC2"
		},
		{
			"bufferView":7,
			"componentType":5126,
			"count":559,
			"max":[
				-1.3086204528808594,
				7.955379009246826,
				9.06312084197998
			],
			"min":[
				-61.545623779296875,
				-7.166727066040039,
				-8.00076961517334
			],
			"type":"VEC3"
		},
		{
			"bufferView":8,
			"componentType":5126,
			"count":559,
			"type":"VEC3"
		},
		{
			"bufferView":9,
			"componentType":5126,
			"count":559,
			"type":"VEC2"
		},
		{
			"bufferView":10,
			"componentType":5123,
			"count":2880,
			"type":"SCALAR"
		}
	],
	"bufferViews":[
		{
			"buffer":0,
			"byteLength":13416,
			"byteOffset":0,
			"target":34962
		},
		{
			"buffer":0,
			"byteLength":13416,
			"byteOffset":13416,
			"target":34962
		},
		{
			"buffer":0,
			"byteLength":8944,
			"byteOffset":26832,
			"target":34962
		},
		{
			"buffer":0,
			"byteLength":11520,
			"byteOffset":35776,
			"target":34963
		},
		{
			"buffer":0,
			"byteLength":13416,
			"byteOffset":47296,
			"target":34962
		},
		{
			"buffer":0,
			"byteLength":13416,
			"byteOffset":60712,
			"target":34962
		},
		{
			"buffer":0,
			"byteLength":8944,
			"byteOffset":74128,
			"target":34962
		},
		{
			"buffer":0,
			"byteLength":6708,
			"byteOffset":83072,
			"target":34962
		},
		{
			"buffer":0,
			"byteLength":6708,
			"byteOffset":89780,
			"target":34962
		},
		{
			"buffer":0,
			"byteLength":4472,
			"byteOffset":96488,
			"target":34962
		},
		{
			"buffer":0,
			"byteLength":5760,
			"byteOffset":100960,
			"target":34963
		}
	],
	"buffers":[
		{
			"byteLength":106720,
			"uri":"orange-ghost.bin"
		}
	]
}
