{
	"asset":{
		"generator":"Khronos glTF Blender I/O v4.0.44",
		"version":"2.0"
	},
	"scene":0,
	"scenes":[
		{
			"name":"Scene",
			"nodes":[
				0
			]
		}
	],
	"nodes":[
		{
			"mesh":0,
			"name":"Pinky",
			"rotation":[
				0,
				0.22013349831104279,
				0,
				0.9754697680473328
			],
			"scale":[
				0.033201299607753754,
				0.16425691545009613,
				0.11720345914363861
			],
			"translation":[
				0.9240285158157349,
				1.3343641757965088,
				-0.5466519594192505
			]
		}
	],
	"materials":[
		{
			"doubleSided":true,
			"name":"Material.015",
			"pbrMetallicRoughness":{
				"baseColorFactor":[
					0.01045311987400055,
					0,
					0.8000000715255737,
					1
				],
				"metallicFactor":0,
				"roughnessFactor":0.5
			}
		},
		{
			"doubleSided":true,
			"name":"Material.016",
			"pbrMetallicRoughness":{
				"baseColorFactor":[
					0.4391174018383026,
					0.4391174018383026,
					0.4391174018383026,
					1
				],
				"metallicFactor":0,
				"roughnessFactor":0.5
			}
		},
		{
			"doubleSided":true,
			"name":"Material.017",
			"pbrMetallicRoughness":{
				"baseColorFactor":[
					0.7561960816383362,
					0.01325874961912632,
					0.8000000715255737,
					1
				],
				"metallicFactor":0,
				"roughnessFactor":0.5
			}
		}
	],
	"meshes":[
		{
			"name":"Sphere.022",
			"primitives":[
				{
					"attributes":{
						"POSITION":0,
						"NORMAL":1,
						"TEXCOORD_0":2
					},
					"indices":3,
					"material":0
				},
				{
					"attributes":{
						"POSITION":4,
						"NORMAL":5,
						"TEXCOORD_0":6
					},
					"indices":3,
					"material":1
				},
				{
					"attributes":{
						"POSITION":7,
						"NORMAL":8,
						"TEXCOORD_0":9
					},
					"indices":10,
					"material":2
				}
			]
		}
	],
	"accessors":[
		{
			"bufferView":0,
			"componentType":5126,
			"count":1118,
			"max":[
				0.9999997019767761,
				1.0000020265579224,
				7.623262405395508
			],
			"min":[
				-11.413320541381836,
				-1,
				-0.9999987483024597
			],
			"type":"VEC3"
		},
		{
			"bufferView":1,
			"componentType":5126,
			"count":1118,
			"type":"VEC3"
		},
		{
			"bufferView":2,
			"componentType":5126,
			"count":1118,
			"type":"VEC2"
		},
		{
			"bufferView":3,
			"componentType":5123,
			"count":5760,
			"type":"SCALAR"
		},
		{
			"bufferView":4,
			"componentType":5126,
			"count":1118,
			"max":[
				0.30534863471984863,
				2.2569217681884766,
				8.114892959594727
			],
			"min":[
				-16.1661376953125,
				-2.211885452270508,
				-2.239718437194824
			],
			"type":"VEC3"
		},
		{
			"bufferView":5,
			"componentType":5126,
			"count":1118,
			"type":"VEC3"
		},
		{
			"bufferView":6,
			"componentType":5126,
			"count":1118,
			"type":"VEC2"
		},
		{
			"bufferView":7,
			"componentType":5126,
			"count":559,
			"max":[
				-0.9047603607177734,
				7.955381393432617,
				9.150287628173828
			],
			"min":[
				-61.06438446044922,
				-7.166726112365723,
				-7.89167594909668
			],
			"type":"VEC3"
		},
		{
			"bufferView":8,
			"componentType":5126,
			"count":559,
			"type":"VEC3"
		},
		{
			"bufferView":9,
			"componentType":5126,
			"count":559,
			"type":"VEC2"
		},
		{
			"bufferView":10,
			"componentType":5123,
			"count":2880,
			"type":"SCALAR"
		}
	],
	"bufferViews":[
		{
			"buffer":0,
			"byteLength":13416,
			"byteOffset":0,
			"target":34962
		},
		{
			"buffer":0,
			"byteLength":13416,
			"byteOffset":13416,
			"target":34962
		},
		{
			"buffer":0,
			"byteLength":8944,
			"byteOffset":26832,
			"target":34962
		},
		{
			"buffer":0,
			"byteLength":11520,
			"byteOffset":35776,
			"target":34963
		},
		{
			"buffer":0,
			"byteLength":13416,
			"byteOffset":47296,
			"target":34962
		},
		{
			"buffer":0,
			"byteLength":13416,
			"byteOffset":60712,
			"target":34962
		},
		{
			"buffer":0,
			"byteLength":8944,
			"byteOffset":74128,
			"target":34962
		},
		{
			"buffer":0,
			"byteLength":6708,
			"byteOffset":83072,
			"target":34962
		},
		{
			"buffer":0,
			"byteLength":6708,
			"byteOffset":89780,
			"target":34962
		},
		{
			"buffer":0,
			"byteLength":4472,
			"byteOffset":96488,
			"target":34962
		},
		{
			"buffer":0,
			"byteLength":5760,
			"byteOffset":100960,
			"target":34963
		}
	],
	"buffers":[
		{
			"byteLength":106720,
			"uri":"purple-ghost.bin"
		}
	]
}
