{
	"asset":{
		"generator":"Khronos glTF Blender I/O v4.0.44",
		"version":"2.0"
	},
	"scene":0,
	"scenes":[
		{
			"name":"Scene",
			"nodes":[
				0
			]
		}
	],
	"nodes":[
		{
			"mesh":0,
			"name":"Blinky",
			"rotation":[
				0,
				0.22013349831104279,
				0,
				0.9754697680473328
			],
			"scale":[
				0.033201299607753754,
				0.16425691545009613,
				0.11720345914363861
			],
			"translation":[
				0.8708749413490295,
				1.3246095180511475,
				-0.5099999904632568
			]
		}
	],
	"materials":[
		{
			"doubleSided":true,
			"name":"Material.002",
			"pbrMetallicRoughness":{
				"baseColorFactor":[
					0.01045311987400055,
					0,
					0.8000000715255737,
					1
				],
				"metallicFactor":0,
				"roughnessFactor":0.5
			}
		},
		{
			"doubleSided":true,
			"name":"Material.001",
			"pbrMetallicRoughness":{
				"baseColorFactor":[
					0.8000000715255737,
					0,
					0.0013005994260311127,
					1
				],
				"metallicFactor":0,
				"roughnessFactor":0.5
			}
		},
		{
			"doubleSided":true,
			"name":"Material.004",
			"pbrMetallicRoughness":{
				"baseColorFactor":[
					0.4391174018383026,
					0.4391174018383026,
					0.4391174018383026,
					1
				],
				"metallicFactor":0,
				"roughnessFactor":0.5
			}
		}
	],
	"meshes":[
		{
			"name":"Sphere.005",
			"primitives":[
				{
					"attributes":{
						"POSITION":0,
						"NORMAL":1,
						"TEXCOORD_0":2
					},
					"indices":3,
					"material":0
				},
				{
					"attributes":{
						"POSITION":4,
						"NORMAL":5,
						"TEXCOORD_0":6
					},
					"indices":7,
					"material":1
				},
				{
					"attributes":{
						"POSITION":8,
						"NORMAL":9,
						"TEXCOORD_0":10
					},
					"indices":3,
					"material":2
				}
			]
		}
	],
	"accessors":[
		{
			"bufferView":0,
			"componentType":5126,
			"count":1118,
			"max":[
				0.9999997019767761,
				1.0000020265579224,
				7.623263835906982
			],
			"min":[
				-11.413324356079102,
				-1,
				-0.9999987483024597
			],
			"type":"VEC3"
		},
		{
			"bufferView":1,
			"componentType":5126,
			"count":1118,
			"type":"VEC3"
		},
		{
			"bufferView":2,
			"componentType":5126,
			"count":1118,
			"type":"VEC2"
		},
		{
			"bufferView":3,
			"componentType":5123,
			"count":5760,
			"type":"SCALAR"
		},
		{
			"bufferView":4,
			"componentType":5126,
			"count":559,
			"max":[
				-0.9047641754150391,
				7.955381393432617,
				9.150287628173828
			],
			"min":[
				-61.06438446044922,
				-7.166726112365723,
				-7.8916754722595215
			],
			"type":"VEC3"
		},
		{
			"bufferView":5,
			"componentType":5126,
			"count":559,
			"type":"VEC3"
		},
		{
			"bufferView":6,
			"componentType":5126,
			"count":559,
			"type":"VEC2"
		},
		{
			"bufferView":7,
			"componentType":5123,
			"count":2880,
			"type":"SCALAR"
		},
		{
			"bufferView":8,
			"componentType":5126,
			"count":1118,
			"max":[
				0.305344820022583,
				2.2569217681884766,
				8.114892959594727
			],
			"min":[
				-16.16614532470703,
				-2.211885452270508,
				-2.2397232055664062
			],
			"type":"VEC3"
		},
		{
			"bufferView":9,
			"componentType":5126,
			"count":1118,
			"type":"VEC3"
		},
		{
			"bufferView":10,
			"componentType":5126,
			"count":1118,
			"type":"VEC2"
		}
	],
	"bufferViews":[
		{
			"buffer":0,
			"byteLength":13416,
			"byteOffset":0,
			"target":34962
		},
		{
			"buffer":0,
			"byteLength":13416,
			"byteOffset":13416,
			"target":34962
		},
		{
			"buffer":0,
			"byteLength":8944,
			"byteOffset":26832,
			"target":34962
		},
		{
			"buffer":0,
			"byteLength":11520,
			"byteOffset":35776,
			"target":34963
		},
		{
			"buffer":0,
			"byteLength":6708,
			"byteOffset":47296,
			"target":34962
		},
		{
			"buffer":0,
			"byteLength":6708,
			"byteOffset":54004,
			"target":34962
		},
		{
			"buffer":0,
			"byteLength":4472,
			"byteOffset":60712,
			"target":34962
		},
		{
			"buffer":0,
			"byteLength":5760,
			"byteOffset":65184,
			"target":34963
		},
		{
			"buffer":0,
			"byteLength":13416,
			"byteOffset":70944,
			"target":34962
		},
		{
			"buffer":0,
			"byteLength":13416,
			"byteOffset":84360,
			"target":34962
		},
		{
			"buffer":0,
			"byteLength":8944,
			"byteOffset":97776,
			"target":34962
		}
	],
	"buffers":[
		{
			"byteLength":106720,
			"uri":"red-ghost.bin"
		}
	]
}
